<mxfile host="Electron" agent="Mozilla/5.0 (X11; Linux x86_64) AppleWebKit/537.36 (KHTML, like Gecko) draw.io/27.0.9 Chrome/134.0.6998.205 Electron/35.4.0 Safari/537.36" version="27.0.9">
  <diagram name="Page-1" id="HuS88_Jt_gaDi7P6n8Qi">
    <mxGraphModel dx="1485" dy="1012" grid="1" gridSize="10" guides="1" tooltips="1" connect="1" arrows="1" fold="1" page="1" pageScale="1" pageWidth="850" pageHeight="1100" math="0" shadow="0">
      <root>
        <mxCell id="0" />
        <mxCell id="1" parent="0" />
        <mxCell id="0aqnkhDB4DDLj9S52sLU-20" value="Future Implementaion" style="fillColor=#f5f5f5;strokeColor=#666666;dashed=1;verticalAlign=top;fontStyle=0;fontColor=#333333;whiteSpace=wrap;html=1;shadow=0;" parent="1" vertex="1">
          <mxGeometry x="770" y="180" width="400" height="460" as="geometry" />
        </mxCell>
        <mxCell id="0aqnkhDB4DDLj9S52sLU-1" value="Cloud" style="points=[[0,0],[0.25,0],[0.5,0],[0.75,0],[1,0],[1,0.25],[1,0.5],[1,0.75],[1,1],[0.75,1],[0.5,1],[0.25,1],[0,1],[0,0.75],[0,0.5],[0,0.25]];outlineConnect=0;gradientColor=none;html=1;whiteSpace=wrap;fontSize=12;fontStyle=0;container=1;pointerEvents=0;collapsible=0;recursiveResize=0;shape=mxgraph.aws4.group;grIcon=mxgraph.aws4.group_aws_cloud_alt;strokeColor=#232F3E;fillColor=none;verticalAlign=top;align=left;spacingLeft=30;fontColor=#232F3E;dashed=0;" parent="1" vertex="1">
          <mxGeometry x="10" y="140" width="990" height="940" as="geometry" />
        </mxCell>
        <mxCell id="0aqnkhDB4DDLj9S52sLU-59" value="Misc. Services" style="fillColor=#EFF0F3;strokeColor=none;dashed=0;verticalAlign=top;fontStyle=0;fontColor=#232F3D;whiteSpace=wrap;html=1;" parent="0aqnkhDB4DDLj9S52sLU-1" vertex="1">
          <mxGeometry x="640" y="760" width="330" height="150" as="geometry" />
        </mxCell>
        <mxCell id="0aqnkhDB4DDLj9S52sLU-25" value="Continuous Integration" style="fillColor=#EFF0F3;strokeColor=none;dashed=0;verticalAlign=top;fontStyle=0;fontColor=#232F3D;whiteSpace=wrap;html=1;" parent="0aqnkhDB4DDLj9S52sLU-1" vertex="1">
          <mxGeometry x="30" y="659" width="580" height="251" as="geometry" />
        </mxCell>
        <mxCell id="0aqnkhDB4DDLj9S52sLU-2" value="VPC" style="points=[[0,0],[0.25,0],[0.5,0],[0.75,0],[1,0],[1,0.25],[1,0.5],[1,0.75],[1,1],[0.75,1],[0.5,1],[0.25,1],[0,1],[0,0.75],[0,0.5],[0,0.25]];outlineConnect=0;gradientColor=none;html=1;whiteSpace=wrap;fontSize=12;fontStyle=0;container=1;pointerEvents=0;collapsible=0;recursiveResize=0;shape=mxgraph.aws4.group;grIcon=mxgraph.aws4.group_vpc2;strokeColor=#8C4FFF;fillColor=none;verticalAlign=top;align=left;spacingLeft=30;fontColor=#AAB7B8;dashed=0;" parent="0aqnkhDB4DDLj9S52sLU-1" vertex="1">
          <mxGeometry x="210" y="40" width="530" height="460" as="geometry" />
        </mxCell>
        <mxCell id="0aqnkhDB4DDLj9S52sLU-3" value="Private subnet" style="points=[[0,0],[0.25,0],[0.5,0],[0.75,0],[1,0],[1,0.25],[1,0.5],[1,0.75],[1,1],[0.75,1],[0.5,1],[0.25,1],[0,1],[0,0.75],[0,0.5],[0,0.25]];outlineConnect=0;gradientColor=none;html=1;whiteSpace=wrap;fontSize=12;fontStyle=0;container=1;pointerEvents=0;collapsible=0;recursiveResize=0;shape=mxgraph.aws4.group;grIcon=mxgraph.aws4.group_security_group;grStroke=0;strokeColor=#00A4A6;fillColor=#E6F6F7;verticalAlign=top;align=left;spacingLeft=30;fontColor=#147EBA;dashed=0;" parent="0aqnkhDB4DDLj9S52sLU-2" vertex="1">
          <mxGeometry x="10" y="200" width="510" height="240" as="geometry" />
        </mxCell>
        <mxCell id="0aqnkhDB4DDLj9S52sLU-16" style="edgeStyle=orthogonalEdgeStyle;rounded=0;orthogonalLoop=1;jettySize=auto;html=1;" parent="0aqnkhDB4DDLj9S52sLU-3" source="0aqnkhDB4DDLj9S52sLU-5" target="0aqnkhDB4DDLj9S52sLU-6" edge="1">
          <mxGeometry relative="1" as="geometry">
            <Array as="points">
              <mxPoint x="409" y="101" />
            </Array>
          </mxGeometry>
        </mxCell>
        <mxCell id="0aqnkhDB4DDLj9S52sLU-5" value="Next JS Application Cluster" style="sketch=0;points=[[0,0,0],[0.25,0,0],[0.5,0,0],[0.75,0,0],[1,0,0],[0,1,0],[0.25,1,0],[0.5,1,0],[0.75,1,0],[1,1,0],[0,0.25,0],[0,0.5,0],[0,0.75,0],[1,0.25,0],[1,0.5,0],[1,0.75,0]];outlineConnect=0;fontColor=#232F3E;fillColor=#ED7100;strokeColor=#ffffff;dashed=0;verticalLabelPosition=bottom;verticalAlign=top;align=center;html=1;fontSize=12;fontStyle=0;aspect=fixed;shape=mxgraph.aws4.resourceIcon;resIcon=mxgraph.aws4.ecs;" parent="0aqnkhDB4DDLj9S52sLU-3" vertex="1">
          <mxGeometry x="201" y="62" width="78" height="78" as="geometry" />
        </mxCell>
        <mxCell id="0aqnkhDB4DDLj9S52sLU-6" value="SQL Database" style="sketch=0;points=[[0,0,0],[0.25,0,0],[0.5,0,0],[0.75,0,0],[1,0,0],[0,1,0],[0.25,1,0],[0.5,1,0],[0.75,1,0],[1,1,0],[0,0.25,0],[0,0.5,0],[0,0.75,0],[1,0.25,0],[1,0.5,0],[1,0.75,0]];outlineConnect=0;fontColor=#232F3E;fillColor=#C925D1;strokeColor=#ffffff;dashed=0;verticalLabelPosition=bottom;verticalAlign=top;align=center;html=1;fontSize=12;fontStyle=0;aspect=fixed;shape=mxgraph.aws4.resourceIcon;resIcon=mxgraph.aws4.database;" parent="0aqnkhDB4DDLj9S52sLU-3" vertex="1">
          <mxGeometry x="370" y="140" width="78" height="78" as="geometry" />
        </mxCell>
        <mxCell id="0aqnkhDB4DDLj9S52sLU-11" value="Application Load Balancer" style="sketch=0;points=[[0,0,0],[0.25,0,0],[0.5,0,0],[0.75,0,0],[1,0,0],[0,1,0],[0.25,1,0],[0.5,1,0],[0.75,1,0],[1,1,0],[0,0.25,0],[0,0.5,0],[0,0.75,0],[1,0.25,0],[1,0.5,0],[1,0.75,0]];outlineConnect=0;fontColor=#232F3E;fillColor=#8C4FFF;strokeColor=#ffffff;dashed=0;verticalLabelPosition=bottom;verticalAlign=top;align=center;html=1;fontSize=12;fontStyle=0;aspect=fixed;shape=mxgraph.aws4.resourceIcon;resIcon=mxgraph.aws4.elastic_load_balancing;" parent="0aqnkhDB4DDLj9S52sLU-3" vertex="1">
          <mxGeometry x="40" y="62" width="78" height="78" as="geometry" />
        </mxCell>
        <mxCell id="0aqnkhDB4DDLj9S52sLU-14" style="edgeStyle=orthogonalEdgeStyle;rounded=0;orthogonalLoop=1;jettySize=auto;html=1;entryX=0;entryY=0.5;entryDx=0;entryDy=0;entryPerimeter=0;" parent="0aqnkhDB4DDLj9S52sLU-3" source="0aqnkhDB4DDLj9S52sLU-11" target="0aqnkhDB4DDLj9S52sLU-5" edge="1">
          <mxGeometry relative="1" as="geometry" />
        </mxCell>
        <mxCell id="0aqnkhDB4DDLj9S52sLU-70" value="5" style="text;html=1;align=center;verticalAlign=middle;whiteSpace=wrap;rounded=1;fillColor=#f0a30a;strokeColor=default;glass=0;fontColor=#000000;fontSize=17;labelBackgroundColor=none;labelBorderColor=none;textShadow=0;" parent="0aqnkhDB4DDLj9S52sLU-3" vertex="1">
          <mxGeometry x="110" y="50" width="30" height="20" as="geometry" />
        </mxCell>
        <mxCell id="0aqnkhDB4DDLj9S52sLU-71" value="6" style="text;html=1;align=center;verticalAlign=middle;whiteSpace=wrap;rounded=1;fillColor=#f0a30a;strokeColor=default;glass=0;fontColor=#000000;fontSize=17;labelBackgroundColor=none;labelBorderColor=none;textShadow=0;" parent="0aqnkhDB4DDLj9S52sLU-3" vertex="1">
          <mxGeometry x="270" y="50" width="30" height="20" as="geometry" />
        </mxCell>
        <mxCell id="0aqnkhDB4DDLj9S52sLU-72" value="7" style="text;html=1;align=center;verticalAlign=middle;whiteSpace=wrap;rounded=1;fillColor=#f0a30a;strokeColor=default;glass=0;fontColor=#000000;fontSize=17;labelBackgroundColor=none;labelBorderColor=none;textShadow=0;" parent="0aqnkhDB4DDLj9S52sLU-3" vertex="1">
          <mxGeometry x="440" y="130" width="30" height="20" as="geometry" />
        </mxCell>
        <mxCell id="0aqnkhDB4DDLj9S52sLU-4" value="Public subnet" style="points=[[0,0],[0.25,0],[0.5,0],[0.75,0],[1,0],[1,0.25],[1,0.5],[1,0.75],[1,1],[0.75,1],[0.5,1],[0.25,1],[0,1],[0,0.75],[0,0.5],[0,0.25]];outlineConnect=0;gradientColor=none;html=1;whiteSpace=wrap;fontSize=12;fontStyle=0;container=1;pointerEvents=0;collapsible=0;recursiveResize=0;shape=mxgraph.aws4.group;grIcon=mxgraph.aws4.group_security_group;grStroke=0;strokeColor=#7AA116;fillColor=#F2F6E8;verticalAlign=top;align=left;spacingLeft=30;fontColor=#248814;dashed=0;" parent="0aqnkhDB4DDLj9S52sLU-2" vertex="1">
          <mxGeometry x="10" y="40" width="300" height="150" as="geometry" />
        </mxCell>
        <mxCell id="0aqnkhDB4DDLj9S52sLU-12" value="NAT" style="sketch=0;outlineConnect=0;fontColor=#232F3E;gradientColor=none;fillColor=#8C4FFF;strokeColor=none;dashed=0;verticalLabelPosition=bottom;verticalAlign=top;align=center;html=1;fontSize=12;fontStyle=0;aspect=fixed;pointerEvents=1;shape=mxgraph.aws4.nat_gateway;" parent="0aqnkhDB4DDLj9S52sLU-4" vertex="1">
          <mxGeometry x="97" y="36" width="78" height="78" as="geometry" />
        </mxCell>
        <mxCell id="0aqnkhDB4DDLj9S52sLU-68" value="4" style="text;html=1;align=center;verticalAlign=middle;whiteSpace=wrap;rounded=1;fillColor=#f0a30a;strokeColor=default;glass=0;fontColor=#000000;fontSize=17;labelBackgroundColor=none;labelBorderColor=none;textShadow=0;" parent="0aqnkhDB4DDLj9S52sLU-4" vertex="1">
          <mxGeometry x="155" y="31" width="30" height="20" as="geometry" />
        </mxCell>
        <mxCell id="0aqnkhDB4DDLj9S52sLU-24" style="edgeStyle=orthogonalEdgeStyle;rounded=0;orthogonalLoop=1;jettySize=auto;html=1;entryX=0;entryY=0.5;entryDx=0;entryDy=0;entryPerimeter=0;" parent="0aqnkhDB4DDLj9S52sLU-2" source="0aqnkhDB4DDLj9S52sLU-5" target="0aqnkhDB4DDLj9S52sLU-21" edge="1">
          <mxGeometry relative="1" as="geometry">
            <Array as="points">
              <mxPoint x="350" y="301" />
              <mxPoint x="350" y="519" />
            </Array>
          </mxGeometry>
        </mxCell>
        <mxCell id="0aqnkhDB4DDLj9S52sLU-67" value="3" style="text;html=1;align=center;verticalAlign=middle;whiteSpace=wrap;rounded=1;fillColor=#f0a30a;strokeColor=default;glass=0;fontColor=#000000;fontSize=17;labelBackgroundColor=none;labelBorderColor=none;textShadow=0;" parent="0aqnkhDB4DDLj9S52sLU-2" vertex="1">
          <mxGeometry x="490" y="-10" width="30" height="20" as="geometry" />
        </mxCell>
        <mxCell id="U_Kiuy1Ev2fFni8O1hCP-5" style="edgeStyle=orthogonalEdgeStyle;rounded=0;orthogonalLoop=1;jettySize=auto;html=1;" edge="1" parent="0aqnkhDB4DDLj9S52sLU-2" source="0aqnkhDB4DDLj9S52sLU-5" target="0aqnkhDB4DDLj9S52sLU-12">
          <mxGeometry relative="1" as="geometry">
            <Array as="points">
              <mxPoint x="250" y="115" />
            </Array>
          </mxGeometry>
        </mxCell>
        <mxCell id="0aqnkhDB4DDLj9S52sLU-7" value="User Sessions&lt;br&gt;(DynamoDB Unstructured Table)" style="sketch=0;points=[[0,0,0],[0.25,0,0],[0.5,0,0],[0.75,0,0],[1,0,0],[0,1,0],[0.25,1,0],[0.5,1,0],[0.75,1,0],[1,1,0],[0,0.25,0],[0,0.5,0],[0,0.75,0],[1,0.25,0],[1,0.5,0],[1,0.75,0]];outlineConnect=0;fontColor=#232F3E;fillColor=#C925D1;strokeColor=#ffffff;dashed=0;verticalLabelPosition=bottom;verticalAlign=top;align=center;html=1;fontSize=12;fontStyle=0;aspect=fixed;shape=mxgraph.aws4.resourceIcon;resIcon=mxgraph.aws4.dynamodb;" parent="0aqnkhDB4DDLj9S52sLU-1" vertex="1">
          <mxGeometry x="818" y="380" width="78" height="78" as="geometry" />
        </mxCell>
        <mxCell id="0aqnkhDB4DDLj9S52sLU-13" style="edgeStyle=orthogonalEdgeStyle;rounded=0;orthogonalLoop=1;jettySize=auto;html=1;" parent="0aqnkhDB4DDLj9S52sLU-1" source="0aqnkhDB4DDLj9S52sLU-9" target="0aqnkhDB4DDLj9S52sLU-11" edge="1">
          <mxGeometry relative="1" as="geometry" />
        </mxCell>
        <mxCell id="0aqnkhDB4DDLj9S52sLU-9" value="Cloudfront Distribution" style="sketch=0;points=[[0,0,0],[0.25,0,0],[0.5,0,0],[0.75,0,0],[1,0,0],[0,1,0],[0.25,1,0],[0.5,1,0],[0.75,1,0],[1,1,0],[0,0.25,0],[0,0.5,0],[0,0.75,0],[1,0.25,0],[1,0.5,0],[1,0.75,0]];outlineConnect=0;fontColor=#232F3E;fillColor=#8C4FFF;strokeColor=#ffffff;dashed=0;verticalLabelPosition=bottom;verticalAlign=top;align=center;html=1;fontSize=12;fontStyle=0;aspect=fixed;shape=mxgraph.aws4.resourceIcon;resIcon=mxgraph.aws4.cloudfront;" parent="0aqnkhDB4DDLj9S52sLU-1" vertex="1">
          <mxGeometry x="30" y="231" width="78" height="78" as="geometry" />
        </mxCell>
        <mxCell id="0aqnkhDB4DDLj9S52sLU-10" value="DNS Management" style="sketch=0;points=[[0,0,0],[0.25,0,0],[0.5,0,0],[0.75,0,0],[1,0,0],[0,1,0],[0.25,1,0],[0.5,1,0],[0.75,1,0],[1,1,0],[0,0.25,0],[0,0.5,0],[0,0.75,0],[1,0.25,0],[1,0.5,0],[1,0.75,0]];outlineConnect=0;fontColor=#232F3E;fillColor=#8C4FFF;strokeColor=#ffffff;dashed=0;verticalLabelPosition=bottom;verticalAlign=top;align=center;html=1;fontSize=12;fontStyle=0;aspect=fixed;shape=mxgraph.aws4.resourceIcon;resIcon=mxgraph.aws4.route_53;" parent="0aqnkhDB4DDLj9S52sLU-1" vertex="1">
          <mxGeometry x="30" y="70" width="78" height="78" as="geometry" />
        </mxCell>
        <mxCell id="0aqnkhDB4DDLj9S52sLU-17" style="edgeStyle=orthogonalEdgeStyle;rounded=0;orthogonalLoop=1;jettySize=auto;html=1;" parent="0aqnkhDB4DDLj9S52sLU-1" source="0aqnkhDB4DDLj9S52sLU-5" target="0aqnkhDB4DDLj9S52sLU-7" edge="1">
          <mxGeometry relative="1" as="geometry">
            <Array as="points">
              <mxPoint x="779" y="341" />
            </Array>
          </mxGeometry>
        </mxCell>
        <mxCell id="0aqnkhDB4DDLj9S52sLU-18" value="Analytics Bucket" style="sketch=0;points=[[0,0,0],[0.25,0,0],[0.5,0,0],[0.75,0,0],[1,0,0],[0,1,0],[0.25,1,0],[0.5,1,0],[0.75,1,0],[1,1,0],[0,0.25,0],[0,0.5,0],[0,0.75,0],[1,0.25,0],[1,0.5,0],[1,0.75,0]];outlineConnect=0;fontColor=#232F3E;fillColor=#7AA116;strokeColor=#ffffff;dashed=0;verticalLabelPosition=bottom;verticalAlign=top;align=center;html=1;fontSize=12;fontStyle=0;aspect=fixed;shape=mxgraph.aws4.resourceIcon;resIcon=mxgraph.aws4.s3;" parent="0aqnkhDB4DDLj9S52sLU-1" vertex="1">
          <mxGeometry x="890" y="116" width="78" height="78" as="geometry" />
        </mxCell>
        <mxCell id="0aqnkhDB4DDLj9S52sLU-21" value="SES Email Identity" style="sketch=0;points=[[0,0,0],[0.25,0,0],[0.5,0,0],[0.75,0,0],[1,0,0],[0,1,0],[0.25,1,0],[0.5,1,0],[0.75,1,0],[1,1,0],[0,0.25,0],[0,0.5,0],[0,0.75,0],[1,0.25,0],[1,0.5,0],[1,0.75,0]];outlineConnect=0;fontColor=#232F3E;gradientColor=#4D72F3;gradientDirection=north;fillColor=#3334B9;strokeColor=#ffffff;dashed=0;verticalLabelPosition=bottom;verticalAlign=top;align=center;html=1;fontSize=12;fontStyle=0;aspect=fixed;shape=mxgraph.aws4.resourceIcon;resIcon=mxgraph.aws4.simple_email_service;" parent="0aqnkhDB4DDLj9S52sLU-1" vertex="1">
          <mxGeometry x="818" y="520" width="78" height="78" as="geometry" />
        </mxCell>
        <mxCell id="U_Kiuy1Ev2fFni8O1hCP-3" style="edgeStyle=orthogonalEdgeStyle;rounded=0;orthogonalLoop=1;jettySize=auto;html=1;" edge="1" parent="0aqnkhDB4DDLj9S52sLU-1" source="0aqnkhDB4DDLj9S52sLU-23" target="0aqnkhDB4DDLj9S52sLU-5">
          <mxGeometry relative="1" as="geometry">
            <Array as="points">
              <mxPoint x="409" y="560" />
              <mxPoint x="460" y="560" />
            </Array>
          </mxGeometry>
        </mxCell>
        <mxCell id="0aqnkhDB4DDLj9S52sLU-23" value="Image Repository" style="sketch=0;points=[[0,0,0],[0.25,0,0],[0.5,0,0],[0.75,0,0],[1,0,0],[0,1,0],[0.25,1,0],[0.5,1,0],[0.75,1,0],[1,1,0],[0,0.25,0],[0,0.5,0],[0,0.75,0],[1,0.25,0],[1,0.5,0],[1,0.75,0]];outlineConnect=0;fontColor=#232F3E;fillColor=#ED7100;strokeColor=#ffffff;dashed=0;verticalLabelPosition=bottom;verticalAlign=top;align=center;html=1;fontSize=12;fontStyle=0;aspect=fixed;shape=mxgraph.aws4.resourceIcon;resIcon=mxgraph.aws4.ecr;" parent="0aqnkhDB4DDLj9S52sLU-1" vertex="1">
          <mxGeometry x="370" y="690" width="78" height="78" as="geometry" />
        </mxCell>
        <mxCell id="0aqnkhDB4DDLj9S52sLU-26" value="Code Build" style="sketch=0;points=[[0,0,0],[0.25,0,0],[0.5,0,0],[0.75,0,0],[1,0,0],[0,1,0],[0.25,1,0],[0.5,1,0],[0.75,1,0],[1,1,0],[0,0.25,0],[0,0.5,0],[0,0.75,0],[1,0.25,0],[1,0.5,0],[1,0.75,0]];outlineConnect=0;fontColor=#232F3E;fillColor=#C925D1;strokeColor=#ffffff;dashed=0;verticalLabelPosition=bottom;verticalAlign=top;align=center;html=1;fontSize=12;fontStyle=0;aspect=fixed;shape=mxgraph.aws4.resourceIcon;resIcon=mxgraph.aws4.codebuild;" parent="0aqnkhDB4DDLj9S52sLU-1" vertex="1">
          <mxGeometry x="58" y="800" width="78" height="78" as="geometry" />
        </mxCell>
        <mxCell id="0aqnkhDB4DDLj9S52sLU-30" value="" style="edgeStyle=orthogonalEdgeStyle;rounded=0;orthogonalLoop=1;jettySize=auto;html=1;" parent="0aqnkhDB4DDLj9S52sLU-1" source="0aqnkhDB4DDLj9S52sLU-27" target="0aqnkhDB4DDLj9S52sLU-29" edge="1">
          <mxGeometry relative="1" as="geometry" />
        </mxCell>
        <mxCell id="0aqnkhDB4DDLj9S52sLU-27" value="Code Deploy" style="sketch=0;points=[[0,0,0],[0.25,0,0],[0.5,0,0],[0.75,0,0],[1,0,0],[0,1,0],[0.25,1,0],[0.5,1,0],[0.75,1,0],[1,1,0],[0,0.25,0],[0,0.5,0],[0,0.75,0],[1,0.25,0],[1,0.5,0],[1,0.75,0]];outlineConnect=0;fontColor=#232F3E;fillColor=#C925D1;strokeColor=#ffffff;dashed=0;verticalLabelPosition=bottom;verticalAlign=top;align=center;html=1;fontSize=12;fontStyle=0;aspect=fixed;shape=mxgraph.aws4.resourceIcon;resIcon=mxgraph.aws4.codedeploy;" parent="0aqnkhDB4DDLj9S52sLU-1" vertex="1">
          <mxGeometry x="186" y="800" width="78" height="78" as="geometry" />
        </mxCell>
        <mxCell id="0aqnkhDB4DDLj9S52sLU-28" style="edgeStyle=orthogonalEdgeStyle;rounded=0;orthogonalLoop=1;jettySize=auto;html=1;entryX=0;entryY=0.5;entryDx=0;entryDy=0;entryPerimeter=0;" parent="0aqnkhDB4DDLj9S52sLU-1" source="0aqnkhDB4DDLj9S52sLU-26" target="0aqnkhDB4DDLj9S52sLU-27" edge="1">
          <mxGeometry relative="1" as="geometry" />
        </mxCell>
        <mxCell id="0aqnkhDB4DDLj9S52sLU-29" value="Code Pipeline" style="sketch=0;points=[[0,0,0],[0.25,0,0],[0.5,0,0],[0.75,0,0],[1,0,0],[0,1,0],[0.25,1,0],[0.5,1,0],[0.75,1,0],[1,1,0],[0,0.25,0],[0,0.5,0],[0,0.75,0],[1,0.25,0],[1,0.5,0],[1,0.75,0]];outlineConnect=0;fontColor=#232F3E;fillColor=#C925D1;strokeColor=#ffffff;dashed=0;verticalLabelPosition=bottom;verticalAlign=top;align=center;html=1;fontSize=12;fontStyle=0;aspect=fixed;shape=mxgraph.aws4.resourceIcon;resIcon=mxgraph.aws4.codepipeline;" parent="0aqnkhDB4DDLj9S52sLU-1" vertex="1">
          <mxGeometry x="306" y="800" width="78" height="78" as="geometry" />
        </mxCell>
        <mxCell id="0aqnkhDB4DDLj9S52sLU-55" value="CDK" style="sketch=0;points=[[0,0,0],[0.25,0,0],[0.5,0,0],[0.75,0,0],[1,0,0],[0,1,0],[0.25,1,0],[0.5,1,0],[0.75,1,0],[1,1,0],[0,0.25,0],[0,0.5,0],[0,0.75,0],[1,0.25,0],[1,0.5,0],[1,0.75,0]];outlineConnect=0;fontColor=#232F3E;fillColor=#C925D1;strokeColor=#ffffff;dashed=0;verticalLabelPosition=bottom;verticalAlign=top;align=center;html=1;fontSize=12;fontStyle=0;aspect=fixed;shape=mxgraph.aws4.resourceIcon;resIcon=mxgraph.aws4.cloud_development_kit;" parent="0aqnkhDB4DDLj9S52sLU-1" vertex="1">
          <mxGeometry x="660" y="800" width="78" height="78" as="geometry" />
        </mxCell>
        <mxCell id="0aqnkhDB4DDLj9S52sLU-56" value="Cloud Watch" style="sketch=0;points=[[0,0,0],[0.25,0,0],[0.5,0,0],[0.75,0,0],[1,0,0],[0,1,0],[0.25,1,0],[0.5,1,0],[0.75,1,0],[1,1,0],[0,0.25,0],[0,0.5,0],[0,0.75,0],[1,0.25,0],[1,0.5,0],[1,0.75,0]];points=[[0,0,0],[0.25,0,0],[0.5,0,0],[0.75,0,0],[1,0,0],[0,1,0],[0.25,1,0],[0.5,1,0],[0.75,1,0],[1,1,0],[0,0.25,0],[0,0.5,0],[0,0.75,0],[1,0.25,0],[1,0.5,0],[1,0.75,0]];outlineConnect=0;fontColor=#232F3E;fillColor=#E7157B;strokeColor=#ffffff;dashed=0;verticalLabelPosition=bottom;verticalAlign=top;align=center;html=1;fontSize=12;fontStyle=0;aspect=fixed;shape=mxgraph.aws4.resourceIcon;resIcon=mxgraph.aws4.cloudwatch_2;" parent="0aqnkhDB4DDLj9S52sLU-1" vertex="1">
          <mxGeometry x="880" y="800" width="78" height="78" as="geometry" />
        </mxCell>
        <mxCell id="0aqnkhDB4DDLj9S52sLU-58" value="Cloud Formatiaon" style="sketch=0;points=[[0,0,0],[0.25,0,0],[0.5,0,0],[0.75,0,0],[1,0,0],[0,1,0],[0.25,1,0],[0.5,1,0],[0.75,1,0],[1,1,0],[0,0.25,0],[0,0.5,0],[0,0.75,0],[1,0.25,0],[1,0.5,0],[1,0.75,0]];points=[[0,0,0],[0.25,0,0],[0.5,0,0],[0.75,0,0],[1,0,0],[0,1,0],[0.25,1,0],[0.5,1,0],[0.75,1,0],[1,1,0],[0,0.25,0],[0,0.5,0],[0,0.75,0],[1,0.25,0],[1,0.5,0],[1,0.75,0]];outlineConnect=0;fontColor=#232F3E;fillColor=#E7157B;strokeColor=#ffffff;dashed=0;verticalLabelPosition=bottom;verticalAlign=top;align=center;html=1;fontSize=12;fontStyle=0;aspect=fixed;shape=mxgraph.aws4.resourceIcon;resIcon=mxgraph.aws4.cloudformation;" parent="0aqnkhDB4DDLj9S52sLU-1" vertex="1">
          <mxGeometry x="770" y="800" width="78" height="78" as="geometry" />
        </mxCell>
        <mxCell id="0aqnkhDB4DDLj9S52sLU-61" value="Secrets" style="sketch=0;points=[[0,0,0],[0.25,0,0],[0.5,0,0],[0.75,0,0],[1,0,0],[0,1,0],[0.25,1,0],[0.5,1,0],[0.75,1,0],[1,1,0],[0,0.25,0],[0,0.5,0],[0,0.75,0],[1,0.25,0],[1,0.5,0],[1,0.75,0]];outlineConnect=0;fontColor=#232F3E;fillColor=#DD344C;strokeColor=#ffffff;dashed=0;verticalLabelPosition=bottom;verticalAlign=top;align=center;html=1;fontSize=12;fontStyle=0;aspect=fixed;shape=mxgraph.aws4.resourceIcon;resIcon=mxgraph.aws4.secrets_manager;" parent="0aqnkhDB4DDLj9S52sLU-1" vertex="1">
          <mxGeometry x="490" y="690" width="78" height="78" as="geometry" />
        </mxCell>
        <mxCell id="0aqnkhDB4DDLj9S52sLU-65" style="edgeStyle=orthogonalEdgeStyle;rounded=0;orthogonalLoop=1;jettySize=auto;html=1;entryX=0;entryY=0.5;entryDx=0;entryDy=0;entryPerimeter=0;" parent="0aqnkhDB4DDLj9S52sLU-1" source="0aqnkhDB4DDLj9S52sLU-7" target="0aqnkhDB4DDLj9S52sLU-18" edge="1">
          <mxGeometry relative="1" as="geometry" />
        </mxCell>
        <mxCell id="0aqnkhDB4DDLj9S52sLU-66" value="2" style="text;html=1;align=center;verticalAlign=middle;whiteSpace=wrap;rounded=1;fillColor=#f0a30a;strokeColor=default;glass=0;fontColor=#000000;fontSize=17;labelBackgroundColor=none;labelBorderColor=none;textShadow=0;" parent="0aqnkhDB4DDLj9S52sLU-1" vertex="1">
          <mxGeometry x="100" y="220" width="30" height="20" as="geometry" />
        </mxCell>
        <mxCell id="0aqnkhDB4DDLj9S52sLU-74" value="9" style="text;html=1;align=center;verticalAlign=middle;whiteSpace=wrap;rounded=1;fillColor=#f0a30a;strokeColor=default;glass=0;fontColor=#000000;fontSize=17;labelBackgroundColor=none;labelBorderColor=none;textShadow=0;" parent="0aqnkhDB4DDLj9S52sLU-1" vertex="1">
          <mxGeometry x="568" y="650" width="30" height="20" as="geometry" />
        </mxCell>
        <mxCell id="0aqnkhDB4DDLj9S52sLU-76" value="11" style="text;html=1;align=center;verticalAlign=middle;whiteSpace=wrap;rounded=1;fillColor=#f0a30a;strokeColor=default;glass=0;fontColor=#000000;fontSize=17;labelBackgroundColor=none;labelBorderColor=none;textShadow=0;" parent="0aqnkhDB4DDLj9S52sLU-1" vertex="1">
          <mxGeometry x="928" y="748" width="30" height="20" as="geometry" />
        </mxCell>
        <mxCell id="0aqnkhDB4DDLj9S52sLU-40" value="1" style="text;html=1;align=center;verticalAlign=middle;whiteSpace=wrap;rounded=1;fillColor=#f0a30a;strokeColor=default;glass=0;fontColor=#000000;fontSize=17;labelBackgroundColor=none;labelBorderColor=none;textShadow=0;" parent="0aqnkhDB4DDLj9S52sLU-1" vertex="1">
          <mxGeometry x="950" y="-10" width="30" height="20" as="geometry" />
        </mxCell>
        <mxCell id="U_Kiuy1Ev2fFni8O1hCP-1" style="edgeStyle=orthogonalEdgeStyle;rounded=0;orthogonalLoop=1;jettySize=auto;html=1;entryX=0;entryY=0.5;entryDx=0;entryDy=0;entryPerimeter=0;" edge="1" parent="0aqnkhDB4DDLj9S52sLU-1" source="0aqnkhDB4DDLj9S52sLU-26" target="0aqnkhDB4DDLj9S52sLU-23">
          <mxGeometry relative="1" as="geometry">
            <Array as="points">
              <mxPoint x="97" y="729" />
            </Array>
          </mxGeometry>
        </mxCell>
        <mxCell id="U_Kiuy1Ev2fFni8O1hCP-2" style="edgeStyle=orthogonalEdgeStyle;rounded=0;orthogonalLoop=1;jettySize=auto;html=1;entryX=0.5;entryY=1;entryDx=0;entryDy=0;entryPerimeter=0;" edge="1" parent="0aqnkhDB4DDLj9S52sLU-1" source="0aqnkhDB4DDLj9S52sLU-27" target="0aqnkhDB4DDLj9S52sLU-5">
          <mxGeometry relative="1" as="geometry">
            <Array as="points">
              <mxPoint x="225" y="560" />
              <mxPoint x="460" y="560" />
            </Array>
          </mxGeometry>
        </mxCell>
        <mxCell id="U_Kiuy1Ev2fFni8O1hCP-4" style="edgeStyle=orthogonalEdgeStyle;rounded=0;orthogonalLoop=1;jettySize=auto;html=1;entryX=0.5;entryY=1;entryDx=0;entryDy=0;entryPerimeter=0;" edge="1" parent="0aqnkhDB4DDLj9S52sLU-1" source="0aqnkhDB4DDLj9S52sLU-61" target="0aqnkhDB4DDLj9S52sLU-5">
          <mxGeometry relative="1" as="geometry">
            <Array as="points">
              <mxPoint x="529" y="560" />
              <mxPoint x="460" y="560" />
            </Array>
          </mxGeometry>
        </mxCell>
        <mxCell id="0aqnkhDB4DDLj9S52sLU-35" value="Gitlab Repository" style="shape=rect;fillColor=#EE5396;aspect=fixed;resizable=0;labelPosition=center;verticalLabelPosition=bottom;align=center;verticalAlign=top;strokeColor=none;fontSize=14;" parent="1" vertex="1">
          <mxGeometry x="1059" y="830" width="48" height="48" as="geometry" />
        </mxCell>
        <mxCell id="0aqnkhDB4DDLj9S52sLU-36" value="" style="fillColor=#ffffff;strokeColor=none;dashed=0;outlineConnect=0;html=1;labelPosition=center;verticalLabelPosition=bottom;verticalAlign=top;part=1;movable=0;resizable=0;rotatable=0;shape=mxgraph.ibm_cloud.logo--gitlab" parent="0aqnkhDB4DDLj9S52sLU-35" vertex="1">
          <mxGeometry width="24" height="24" relative="1" as="geometry">
            <mxPoint x="12" y="12" as="offset" />
          </mxGeometry>
        </mxCell>
        <mxCell id="0aqnkhDB4DDLj9S52sLU-38" value="Analytics Service" style="image;sketch=0;aspect=fixed;html=1;points=[];align=center;fontSize=12;image=img/lib/mscae/Chart.svg;" parent="1" vertex="1">
          <mxGeometry x="1058" y="271" width="50" height="48" as="geometry" />
        </mxCell>
        <mxCell id="0aqnkhDB4DDLj9S52sLU-39" style="edgeStyle=orthogonalEdgeStyle;rounded=0;orthogonalLoop=1;jettySize=auto;html=1;exitX=1;exitY=0.5;exitDx=0;exitDy=0;exitPerimeter=0;" parent="1" source="0aqnkhDB4DDLj9S52sLU-18" target="0aqnkhDB4DDLj9S52sLU-38" edge="1">
          <mxGeometry relative="1" as="geometry" />
        </mxCell>
        <mxCell id="0aqnkhDB4DDLj9S52sLU-53" value="" style="rounded=0;whiteSpace=wrap;html=1;fillColor=#fff2cc;strokeColor=default;glass=0;shadow=0;" parent="1" vertex="1">
          <mxGeometry x="1200" y="140" width="410" height="940" as="geometry" />
        </mxCell>
        <mxCell id="0aqnkhDB4DDLj9S52sLU-54" value="&lt;h1 style=&quot;margin-top: 0px;&quot;&gt;Notes&lt;/h1&gt;&lt;p&gt;This is the systems architecture for the Honda Future Scenario project. The infrastructure is hosted on AWS.&lt;/p&gt;&lt;p&gt;Notes for each of the points in the diagram given below.&lt;/p&gt;&lt;p&gt;&lt;/p&gt;&lt;ol&gt;&lt;li&gt;AWS is the chosen cloud infrastructure as that is what was approved by the Honda IT team in our previous calls. The services will be hosted on an AWS account provided by Honda.&lt;/li&gt;&lt;li&gt;We will use cloud front as the distribution service to expose the application to the interent. Appropriate caching policies will be implemneted based on different routes to ensure optimal performance for both static and dynamic content.&lt;br&gt;DNS is managed by either Route 53 or external provider. If an external provider is used, we need to make sure that the SSL certificates and DNS entries are mapped and veriifed accordingly.&lt;/li&gt;&lt;li&gt;The system will be hosted on a VPC. We will have public subnets and private subnets. Services will be hosted on the private subnet unless it is required to be publicly accessible.&lt;/li&gt;&lt;li&gt;A NAT gateway will be hosted on the public subnet to allow applications from the private subnet to communicate with the public internet. The access to public network will be controlled through security group configurations.&lt;/li&gt;&lt;li&gt;An application load balancer is used to connect to the app cluster. The ALB will be hosted within the private subnet. Cloudfront will connect to the ALB using VPC origins. This will further the security of the ALB.&lt;/li&gt;&lt;li&gt;ECS with fargate service will be used to deploy the application. This will allow for us to set auto scale configurations to adjust task count based on load.&lt;br&gt;The task will have the appropriate permissions configured through IAM roles to access various services.&lt;br&gt;SES will be used to manage any email functionality. Like contact form submission, etc.&lt;/li&gt;&lt;li&gt;An SQL DB will be used to store structured data.&lt;/li&gt;&lt;li&gt;Dynamo DB wil be used to track user sessions and activity. We will use DynamoDB due to read/write speeds and unstructured storage format.&lt;/li&gt;&lt;li&gt;Continuous integration and deployment will be done using code build, code deploy and code pipeline. Any changes to the git repository will trigger a pipeline run. The code build will store the docker image in ECR. Code deploy will update the deployment in the ECS cluster through rolling changes instead of Blue Green.&lt;br&gt;We will use secrets manager to store confidential environment variables. Note that any updates to the secrets requires a service redeploy.&lt;/li&gt;&lt;li&gt;The repository will be hosted in a gitlab server provided by Honda.&lt;/li&gt;&lt;li&gt;&lt;b&gt;Misc. Services:&lt;/b&gt;&lt;/li&gt;&lt;ol&gt;&lt;li&gt;CDK - The infrastructure will be built as IAAS using aws cdk for typescript.&lt;/li&gt;&lt;li&gt;Cloud Formation - The stacks synthesised using CDK will be deployed to AWS using cloud formation.&lt;/li&gt;&lt;li&gt;Cloud watch - All system logs and alarms will be configured in cloudwatch. Note that this doesn&#39;t include any analytics.&lt;/li&gt;&lt;/ol&gt;&lt;li&gt;&lt;b&gt;Future implementations: &lt;/b&gt;User session and activity data will be stored in a document database in the future phase. This data will be periodically pushed to an S3 bucket which will then be the source for any analytics tool.&lt;/li&gt;&lt;/ol&gt;&lt;p&gt;&lt;/p&gt;" style="text;html=1;whiteSpace=wrap;overflow=hidden;rounded=0;" parent="1" vertex="1">
          <mxGeometry x="1215" y="150" width="385" height="920" as="geometry" />
        </mxCell>
        <mxCell id="0aqnkhDB4DDLj9S52sLU-60" style="edgeStyle=orthogonalEdgeStyle;rounded=0;orthogonalLoop=1;jettySize=auto;html=1;exitX=0;exitY=0.5;exitDx=0;exitDy=0;entryX=1;entryY=0.5;entryDx=0;entryDy=0;entryPerimeter=0;" parent="1" source="0aqnkhDB4DDLj9S52sLU-35" target="0aqnkhDB4DDLj9S52sLU-29" edge="1">
          <mxGeometry relative="1" as="geometry">
            <Array as="points">
              <mxPoint x="630" y="854" />
              <mxPoint x="630" y="979" />
            </Array>
          </mxGeometry>
        </mxCell>
        <mxCell id="0aqnkhDB4DDLj9S52sLU-73" value="8" style="text;html=1;align=center;verticalAlign=middle;whiteSpace=wrap;rounded=1;fillColor=#f0a30a;strokeColor=default;glass=0;fontColor=#000000;fontSize=17;labelBackgroundColor=none;labelBorderColor=none;textShadow=0;" parent="1" vertex="1">
          <mxGeometry x="900" y="510" width="30" height="20" as="geometry" />
        </mxCell>
        <mxCell id="0aqnkhDB4DDLj9S52sLU-75" value="10" style="text;html=1;align=center;verticalAlign=middle;whiteSpace=wrap;rounded=1;fillColor=#f0a30a;strokeColor=default;glass=0;fontColor=#000000;fontSize=17;labelBackgroundColor=none;labelBorderColor=none;textShadow=0;" parent="1" vertex="1">
          <mxGeometry x="1100" y="820" width="30" height="20" as="geometry" />
        </mxCell>
        <mxCell id="0aqnkhDB4DDLj9S52sLU-77" value="12" style="text;html=1;align=center;verticalAlign=middle;whiteSpace=wrap;rounded=1;fillColor=#f0a30a;strokeColor=default;glass=0;fontColor=#000000;fontSize=17;labelBackgroundColor=none;labelBorderColor=none;textShadow=0;" parent="1" vertex="1">
          <mxGeometry x="1130" y="170" width="30" height="20" as="geometry" />
        </mxCell>
      </root>
    </mxGraphModel>
  </diagram>
</mxfile>
